<svg width="20" height="19" viewBox="0 0 20 19" fill="none" xmlns="http://www.w3.org/2000/svg">
<path d="M1.5 6.99999C2.3 6.99999 3 7.69999 3 8.49999V17.5C3 18.3 2.3 19 1.5 19C0.7 19 0 18.3 0 17.5V8.49999C0 7.69999 0.7 6.99999 1.5 6.99999ZM15 19H7C5.9 19 5 18.1 5 17V7.79999C5 7.29999 5.2 6.79999 5.5 6.49999L8.2 3.49999L8.8 0.999986C8.9 0.399986 9.6 0.0999857 10.1 0.299986C11 0.499986 12 1.29999 12 2.89999C12 4.59999 11 6.99999 11 6.99999H18C19.1 6.99999 20 7.89999 20 8.99999V9.89999C20 10.3 19.9 10.7 19.7 11.1L16.7 17.9C16.4 18.6 15.8 19 15 19Z" fill="#6A9586"/>
</svg>
