<svg width="14" height="13" viewBox="0 0 14 13" fill="none" xmlns="http://www.w3.org/2000/svg">
<path d="M12.6667 8.00001C12.1334 8.00001 11.6667 7.53334 11.6667 7.00001V1.00001C11.6667 0.466677 12.1334 9.53674e-06 12.6667 9.53674e-06C13.2001 9.53674e-06 13.6667 0.466677 13.6667 1.00001V7.00001C13.6667 7.53334 13.2001 8.00001 12.6667 8.00001ZM3.66675 9.53674e-06H9.00008C9.73341 9.53674e-06 10.3334 0.60001 10.3334 1.33334V7.46668C10.3334 7.80001 10.2001 8.13334 10.0001 8.33334L8.20008 10.3333L7.80008 12C7.73341 12.4 7.26675 12.6 6.93341 12.4667C6.33341 12.3333 5.66675 11.8 5.66675 10.7333C5.66675 9.60001 6.33341 8.00001 6.33341 8.00001H1.66675C0.933414 8.00001 0.333414 7.40001 0.333414 6.66668V6.06668C0.333414 5.80001 0.400081 5.53334 0.533414 5.26668L2.53341 0.733343C2.73341 0.266677 3.13341 9.53674e-06 3.66675 9.53674e-06Z" fill="#B1CDBA"/>
</svg>
