<svg width="14" height="8" viewBox="0 0 14 8" fill="none" xmlns="http://www.w3.org/2000/svg">
<path d="M7 0C1.90909 0 0 4 0 4C0 4 1.90909 8 7 8C12.0909 8 14 4 14 4C14 4 12.0909 0 7 0ZM7 1.5C8.757 1.5 10.1818 2.6195 10.1818 4C10.1818 5.3805 8.757 6.5 7 6.5C5.243 6.5 3.81818 5.3805 3.81818 4C3.81818 2.6195 5.243 1.5 7 1.5ZM7 2.5C6.49368 2.5 6.00809 2.65804 5.65007 2.93934C5.29204 3.22064 5.09091 3.60218 5.09091 4C5.09091 4.39782 5.29204 4.77936 5.65007 5.06066C6.00809 5.34196 6.49368 5.5 7 5.5C7.50632 5.5 7.99191 5.34196 8.34993 5.06066C8.70796 4.77936 8.90909 4.39782 8.90909 4C8.90909 3.60218 8.70796 3.22064 8.34993 2.93934C7.99191 2.65804 7.50632 2.5 7 2.5Z" fill="#A9ACBE"/>
</svg>
