<svg width="14" height="10" viewBox="0 0 14 10" fill="none" xmlns="http://www.w3.org/2000/svg">
<path d="M6.99992 0.333008C2.15143 0.333008 0.333252 4.99967 0.333252 4.99967C0.333252 4.99967 2.15143 9.66634 6.99992 9.66634C11.8484 9.66634 13.6666 4.99967 13.6666 4.99967C13.6666 4.99967 11.8484 0.333008 6.99992 0.333008ZM6.99992 2.08301C8.67325 2.08301 10.0302 3.38909 10.0302 4.99967C10.0302 6.61026 8.67325 7.91634 6.99992 7.91634C5.32659 7.91634 3.96962 6.61026 3.96962 4.99967C3.96962 3.38909 5.32659 2.08301 6.99992 2.08301ZM6.99992 3.24967C6.51771 3.24967 6.05524 3.43405 5.71427 3.76224C5.37329 4.09043 5.18174 4.53555 5.18174 4.99967C5.18174 5.4638 5.37329 5.90892 5.71427 6.23711C6.05524 6.5653 6.51771 6.74967 6.99992 6.74967C7.48213 6.74967 7.94459 6.5653 8.28557 6.23711C8.62654 5.90892 8.8181 5.4638 8.8181 4.99967C8.8181 4.53555 8.62654 4.09043 8.28557 3.76224C7.94459 3.43405 7.48213 3.24967 6.99992 3.24967Z" fill="#B1CDBA"/>
</svg>
