<svg width="32" height="32" viewBox="0 0 32 32" fill="none" xmlns="http://www.w3.org/2000/svg">
<rect width="32" height="32" rx="16" fill="#F0F9F6"/>
<g clip-path="url(#clip0_1066_50283)">
<path d="M10.1333 10.1333C9.54398 10.1333 9.06665 10.6106 9.06665 11.2V13.3333V21.8666H15.7458C15.6253 21.5264 15.539 21.1706 15.4979 20.8H10.1333V13.3333H21.8667V15.7458C22.2459 15.8802 22.6048 16.0557 22.9333 16.276V11.7333V11.2C22.9333 10.6106 22.456 10.1333 21.8667 10.1333H10.1333ZM12.2667 14.9333C12.1252 14.9333 11.9895 14.9895 11.8895 15.0895C11.7895 15.1895 11.7333 15.3252 11.7333 15.4666C11.7333 15.6081 11.7895 15.7437 11.8895 15.8438C11.9895 15.9438 12.1252 16 12.2667 16C12.4081 16 12.5438 15.9438 12.6438 15.8438C12.7438 15.7437 12.8 15.6081 12.8 15.4666C12.8 15.3252 12.7438 15.1895 12.6438 15.0895C12.5438 14.9895 12.4081 14.9333 12.2667 14.9333V14.9333ZM14.4 14.9333C14.1056 14.9333 13.8667 15.1722 13.8667 15.4666C13.8667 15.761 14.1056 16 14.4 16H18.0739C18.5795 15.7397 19.1367 15.5656 19.7271 15.4989C19.7276 15.4877 19.7333 15.4778 19.7333 15.4666C19.7333 15.1722 19.4944 14.9333 19.2 14.9333H14.4ZM20.2667 16.5333C18.208 16.5333 16.5333 18.208 16.5333 20.2666C16.5333 22.3253 18.208 24 20.2667 24C22.3253 24 24 22.3253 24 20.2666C24 18.208 22.3253 16.5333 20.2667 16.5333ZM12.2667 17.0666C12.1252 17.0666 11.9895 17.1228 11.8895 17.2228C11.7895 17.3229 11.7333 17.4585 11.7333 17.6C11.7333 17.7414 11.7895 17.8771 11.8895 17.9771C11.9895 18.0771 12.1252 18.1333 12.2667 18.1333C12.4081 18.1333 12.5438 18.0771 12.6438 17.9771C12.7438 17.8771 12.8 17.7414 12.8 17.6C12.8 17.4585 12.7438 17.3229 12.6438 17.2228C12.5438 17.1228 12.4081 17.0666 12.2667 17.0666V17.0666ZM14.4 17.0666C14.1056 17.0666 13.8667 17.3056 13.8667 17.6C13.8667 17.8944 14.1056 18.1333 14.4 18.1333H15.9719C16.1655 17.7445 16.4094 17.3866 16.6969 17.0666H14.4ZM20.2667 17.6C21.7371 17.6 22.9333 18.7962 22.9333 20.2666C22.9333 21.737 21.7371 22.9333 20.2667 22.9333C18.7963 22.9333 17.6 21.737 17.6 20.2666C17.6 18.7962 18.7963 17.6 20.2667 17.6ZM20.2667 18.1333C19.9723 18.1333 19.7333 18.3722 19.7333 18.6666V20.4875L20.6854 21.4396C20.7894 21.5436 20.926 21.5958 21.0625 21.5958C21.199 21.5958 21.3356 21.5436 21.4396 21.4396C21.6481 21.231 21.6481 20.8939 21.4396 20.6854L20.8 20.0458V18.6666C20.8 18.3722 20.5611 18.1333 20.2667 18.1333Z" fill="#6A9586"/>
</g>
<defs>
<clipPath id="clip0_1066_50283">
<rect width="16" height="16" fill="white" transform="translate(8 8)"/>
</clipPath>
</defs>
</svg>
