<svg width="33" height="32" viewBox="0 0 33 32" fill="none" xmlns="http://www.w3.org/2000/svg">
<rect x="0.25" width="32" height="32" rx="16" fill="#F0F9F6"/>
<g clip-path="url(#clip0_1066_50305)">
<path d="M10.9167 10.1333C10.3273 10.1333 9.85 10.6106 9.85 11.2V12.8V13.8666H19.9833H22.65V12.2666C22.65 11.6773 22.1727 11.2 21.5833 11.2H14.7562L14.4271 10.651C14.2345 10.3299 13.8874 10.1333 13.5125 10.1333H10.9167ZM9.58437 14.9333C9.04624 14.9333 8.66088 15.4546 8.81875 15.9687L10.4021 21.1135C10.5402 21.561 10.9536 21.8666 11.4219 21.8666H16.25H21.0781C21.5464 21.8666 21.9598 21.561 22.0979 21.1135L23.6812 15.9687C23.8391 15.4546 23.4538 14.9333 22.9156 14.9333H16.25H9.58437Z" fill="#6A9586"/>
</g>
<defs>
<clipPath id="clip0_1066_50305">
<rect width="16" height="16" fill="white" transform="translate(8.25 8)"/>
</clipPath>
</defs>
</svg>
