<svg width="32" height="32" viewBox="0 0 32 32" fill="none" xmlns="http://www.w3.org/2000/svg">
<rect width="32" height="32" rx="16" fill="#F0F9F6"/>
<path d="M16 8.53345C15.528 8.53345 15.1085 8.7418 14.8156 9.06678H13.3344C12.9573 9.06678 12.6983 9.44816 12.8385 9.79803L13.3333 11.2001H18.6667L19.1615 9.79803C19.3017 9.44816 19.0427 9.06678 18.6656 9.06678H17.1844C16.8915 8.7418 16.472 8.53345 16 8.53345ZM13.3333 12.2668C13.3333 12.2668 9.6 15.4668 9.6 19.2001C9.6 21.3334 11.2 22.4001 12.2667 22.4001H16H19.7333C20.8 22.4001 22.4 21.3334 22.4 19.2001C22.4 15.4668 18.6667 12.2668 18.6667 12.2668H13.3333ZM15.4667 14.1334H16.5333V14.9949C17.2533 15.156 17.7349 15.6466 17.7583 16.3095H16.8594C16.8151 15.949 16.4796 15.7084 16.0177 15.7084C15.5398 15.7084 15.224 15.93 15.224 16.2782C15.224 16.5598 15.4411 16.7219 15.976 16.8355L16.5271 16.9522C17.4449 17.1453 17.8396 17.5418 17.8396 18.2501C17.8396 19.0128 17.3504 19.5241 16.5333 19.6793V20.5334H15.4667V19.6814C14.6821 19.5342 14.1892 19.0526 14.1604 18.348H15.0833C15.1276 18.7182 15.5014 18.9553 16.0396 18.9553C16.5361 18.9553 16.8875 18.715 16.8875 18.3699C16.8875 18.0787 16.66 17.9113 16.1 17.7907L15.5052 17.6637C14.6732 17.4898 14.2646 17.0565 14.2646 16.3605C14.2646 15.6603 14.728 15.1613 15.4667 14.997V14.1334Z" fill="#6A9586"/>
</svg>
