<svg width="33" height="32" viewBox="0 0 33 32" fill="none" xmlns="http://www.w3.org/2000/svg">
<rect x="0.5" width="32" height="32" rx="16" fill="#F0F9F6"/>
<path d="M16.5 9.6001C12.9717 9.6001 10.1 12.4718 10.1 16.0001C10.1 19.5284 12.9717 22.4001 16.5 22.4001C20.0283 22.4001 22.9 19.5284 22.9 16.0001C22.9 12.4718 20.0283 9.6001 16.5 9.6001ZM16.5 10.6668C16.7097 10.6668 16.9269 10.7536 17.175 10.9845C17.4231 11.2153 17.6799 11.5877 17.9 12.072C18.0001 12.2922 18.0908 12.5381 18.174 12.8001H14.826C14.9092 12.5381 14.9999 12.2922 15.1 12.072C15.3201 11.5877 15.5769 11.2153 15.825 10.9845C16.0731 10.7536 16.2903 10.6668 16.5 10.6668ZM14.4135 11.0897C14.3132 11.2608 14.2167 11.4388 14.1292 11.6313C13.9677 11.9866 13.8298 12.3803 13.7125 12.8001H12.2365C12.7962 12.0547 13.5434 11.4587 14.4135 11.0897ZM18.5865 11.0897C19.4566 11.4587 20.2038 12.0547 20.7635 12.8001H19.2875C19.1702 12.3803 19.0323 11.9866 18.8708 11.6313C18.7833 11.4388 18.6868 11.2608 18.5865 11.0897ZM11.6115 13.8668H13.476C13.3902 14.3745 13.3341 14.9096 13.3125 15.4668H11.1927C11.2485 14.9023 11.3944 14.365 11.6115 13.8668ZM14.5604 13.8668H18.4396C18.5331 14.3655 18.5963 14.9026 18.6208 15.4668H14.3792C14.4037 14.9026 14.4669 14.3655 14.5604 13.8668ZM19.524 13.8668H21.3885C21.6056 14.365 21.7515 14.9023 21.8073 15.4668H19.6875C19.6659 14.9096 19.6098 14.3745 19.524 13.8668ZM11.1927 16.5334H13.3125C13.3341 17.0906 13.3902 17.6257 13.476 18.1334H11.6115C11.3944 17.6352 11.2485 17.0979 11.1927 16.5334ZM14.3792 16.5334H18.6208C18.5963 17.0976 18.5331 17.6347 18.4396 18.1334H14.5604C14.4669 17.6347 14.4037 17.0976 14.3792 16.5334ZM19.6875 16.5334H21.8073C21.7515 17.0979 21.6056 17.6352 21.3885 18.1334H19.524C19.6098 17.6257 19.6659 17.0906 19.6875 16.5334ZM12.2365 19.2001H13.7125C13.8298 19.6198 13.9677 20.0136 14.1292 20.3688C14.2167 20.5614 14.3132 20.7394 14.4135 20.9105C13.5434 20.5415 12.7962 19.9455 12.2365 19.2001ZM14.826 19.2001H18.174C18.0908 19.4621 18.0001 19.708 17.9 19.9282C17.6799 20.4125 17.4231 20.7849 17.175 21.0157C16.9269 21.2466 16.7097 21.3334 16.5 21.3334C16.2903 21.3334 16.0731 21.2466 15.825 21.0157C15.5769 20.7849 15.3201 20.4125 15.1 19.9282C14.9999 19.708 14.9092 19.4621 14.826 19.2001ZM19.2875 19.2001H20.7635C20.2038 19.9455 19.4566 20.5415 18.5865 20.9105C18.6868 20.7394 18.7833 20.5614 18.8708 20.3688C19.0323 20.0136 19.1702 19.6198 19.2875 19.2001Z" fill="#6A9586"/>
</svg>
