<svg width="33" height="32" viewBox="0 0 33 32" fill="none" xmlns="http://www.w3.org/2000/svg">
<rect x="0.75" width="32" height="32" rx="16" fill="#F0F9F6"/>
<path d="M16.75 9.33325C14.1727 9.33325 12.0833 11.4226 12.0833 13.9999C12.0833 16.6439 15.0193 20.5466 16.234 22.0473C16.5007 22.3766 16.9993 22.3766 17.266 22.0473C18.4807 20.5466 21.4167 16.6439 21.4167 13.9999C21.4167 11.4226 19.3273 9.33325 16.75 9.33325ZM16.75 15.6666C15.8293 15.6666 15.0833 14.9206 15.0833 13.9999C15.0833 13.0793 15.8293 12.3333 16.75 12.3333C17.6707 12.3333 18.4167 13.0793 18.4167 13.9999C18.4167 14.9206 17.6707 15.6666 16.75 15.6666Z" fill="#6A9586"/>
</svg>
