<svg width="18" height="19" viewBox="0 0 18 19" fill="none" xmlns="http://www.w3.org/2000/svg">
<path d="M16.0714 12.9478V10.2857C16.0714 9.94472 15.936 9.61769 15.6948 9.37657C15.4537 9.13545 15.1267 8.99999 14.7857 8.99999H9.64286V6.42857H10.9286C11.2695 6.42823 11.5963 6.29266 11.8373 6.05161C12.0784 5.81057 12.2139 5.48374 12.2143 5.14285V1.28571C12.2139 0.944826 12.0784 0.617997 11.8373 0.376953C11.5963 0.135908 11.2695 0.000340378 10.9286 0H7.07143C6.73054 0.000340378 6.40371 0.135908 6.16267 0.376953C5.92163 0.617997 5.78606 0.944826 5.78572 1.28571V5.14285C5.78606 5.48374 5.92163 5.81057 6.16267 6.05161C6.40371 6.29266 6.73054 6.42823 7.07143 6.42857H8.35714V8.99999H3.21429C2.8733 8.99999 2.54627 9.13545 2.30515 9.37657C2.06403 9.61769 1.92858 9.94472 1.92858 10.2857V12.9484C1.32258 13.1049 0.794455 13.477 0.44319 13.995C0.0919257 14.513 -0.0583608 15.1413 0.0205013 15.7622C0.0993634 16.3831 0.40196 16.9539 0.87157 17.3676C1.34118 17.7814 1.94556 18.0096 2.57143 18.0096C3.1973 18.0096 3.80169 17.7814 4.2713 17.3676C4.74091 16.9539 5.0435 16.3831 5.12236 15.7622C5.20123 15.1413 5.05094 14.513 4.69968 13.995C4.34841 13.477 3.82028 13.1049 3.21429 12.9484V10.2857H8.35714V12.9484C7.75115 13.1049 7.22302 13.477 6.87176 13.995C6.52049 14.513 6.37021 15.1413 6.44907 15.7622C6.52793 16.3831 6.83053 16.9539 7.30014 17.3676C7.76975 17.7814 8.37413 18.0096 9 18.0096C9.62587 18.0096 10.2303 17.7814 10.6999 17.3676C11.1695 16.9539 11.4721 16.3831 11.5509 15.7622C11.6298 15.1413 11.4795 14.513 11.1282 13.995C10.777 13.477 10.2489 13.1049 9.64286 12.9484V10.2857H14.7857V12.9478C14.1797 13.1042 13.6516 13.4764 13.3003 13.9944C12.9491 14.5124 12.7988 15.1407 12.8776 15.7616C12.9565 16.3824 13.2591 16.9532 13.7287 17.367C14.1983 17.7807 14.8027 18.009 15.4286 18.009C16.0544 18.009 16.6588 17.7807 17.1284 17.367C17.598 16.9532 17.9006 16.3824 17.9795 15.7616C18.0584 15.1407 17.9081 14.5124 17.5568 13.9944C17.2055 13.4764 16.6774 13.1042 16.0714 12.9478ZM7.07143 1.28571H10.9286L10.9292 5.14285H7.07143V1.28571ZM3.85715 15.4286C3.85715 15.6829 3.78174 15.9314 3.64046 16.1429C3.49919 16.3543 3.29839 16.5191 3.06345 16.6164C2.82852 16.7137 2.57001 16.7392 2.3206 16.6896C2.0712 16.64 1.84211 16.5175 1.6623 16.3377C1.48249 16.1579 1.36003 15.9288 1.31042 15.6794C1.26081 15.43 1.28628 15.1715 1.38359 14.9365C1.4809 14.7016 1.64569 14.5008 1.85713 14.3595C2.06856 14.2183 2.31714 14.1428 2.57143 14.1428C2.91232 14.1432 3.23915 14.2788 3.48019 14.5198C3.72124 14.7608 3.85681 15.0877 3.85715 15.4286ZM10.2857 15.4286C10.2857 15.6829 10.2103 15.9314 10.069 16.1429C9.92776 16.3543 9.72696 16.5191 9.49202 16.6164C9.25709 16.7137 8.99857 16.7392 8.74917 16.6896C8.49977 16.64 8.27067 16.5175 8.09086 16.3377C7.91105 16.1579 7.7886 15.9288 7.73899 15.6794C7.68938 15.43 7.71484 15.1715 7.81216 14.9365C7.90947 14.7016 8.07426 14.5008 8.2857 14.3595C8.49713 14.2183 8.74571 14.1428 9 14.1428C9.34084 14.1434 9.66757 14.279 9.90857 14.52C10.1496 14.761 10.2852 15.0877 10.2857 15.4286ZM15.4286 16.7143C15.1743 16.7143 14.9257 16.6389 14.7143 16.4976C14.5028 16.3563 14.338 16.1555 14.2407 15.9206C14.1434 15.6856 14.1179 15.4271 14.1676 15.1777C14.2172 14.9283 14.3396 14.6992 14.5194 14.5194C14.6992 14.3396 14.9283 14.2172 15.1777 14.1676C15.4271 14.1179 15.6857 14.1434 15.9206 14.2407C16.1555 14.338 16.3563 14.5028 16.4976 14.7143C16.6389 14.9257 16.7143 15.1743 16.7143 15.4286C16.7139 15.7694 16.5784 16.0963 16.3373 16.3373C16.0963 16.5784 15.7695 16.7139 15.4286 16.7143Z" fill="#A2A2A2"/>
</svg>
