<svg width="18" height="18" viewBox="0 0 18 18" fill="none" xmlns="http://www.w3.org/2000/svg">
<path d="M9 0C4.02945 0 0 4.02945 0 9C0 13.9706 4.02945 18 9 18C13.9706 18 18 13.9706 18 9C18 4.02945 13.9706 0 9 0ZM5.96426 16.1875C4.05934 15.3808 2.5523 13.8513 1.77392 11.9346C0.99554 10.0179 1.00941 7.87072 1.81249 5.96426C1.85074 5.87418 1.89075 5.78485 1.93249 5.69632L3.9 7.46723V9.83854L6.79125 12.9H8.25V14.7393L6.48555 16.3861C6.31 16.3262 6.13624 16.26 5.96426 16.1875ZM14.5154 14.5154C13.7921 15.241 12.9324 15.8163 11.9858 16.2084C11.0393 16.6005 10.0245 16.8015 9 16.8C8.62708 16.8 8.25462 16.7736 7.88543 16.721L9.45 15.2607V11.7H7.30875L5.1 9.36146V6.93278L2.53875 4.6278C3.38617 3.3796 4.57543 2.40214 5.96411 1.81249C7.1524 1.30981 8.44692 1.11008 9.73146 1.2312C11.016 1.35233 12.2504 1.79053 13.3238 2.50646L11.6151 4.70329L12.196 6.15548L11.8028 6.54866L8.85461 5.95905L7.2 7.2V10.5H13.8L15.6879 13.0172C15.3597 13.5626 14.9659 14.0657 14.5154 14.5154ZM16.8 9C16.8017 9.9596 16.6253 10.9112 16.2798 11.8064L14.4 9.3H8.4V7.8L9.14539 7.24095L12.1972 7.85134L13.604 6.44453L12.9849 4.89671L14.2674 3.24758C14.3514 3.32468 14.4341 3.40368 14.5153 3.48458C15.2408 4.20794 15.8162 5.06762 16.2083 6.01417C16.6004 6.96072 16.8015 7.97545 16.8 9Z" fill="#A2A2A2"/>
</svg>
