<svg width="14" height="13" viewBox="0 0 14 13" fill="none" xmlns="http://www.w3.org/2000/svg">
<path d="M1.33325 4.99999C1.86659 4.99999 2.33325 5.46666 2.33325 5.99999V12C2.33325 12.5333 1.86659 13 1.33325 13C0.799919 13 0.333252 12.5333 0.333252 12V5.99999C0.333252 5.46666 0.799919 4.99999 1.33325 4.99999ZM10.3333 13H4.99992C4.26659 13 3.66659 12.4 3.66659 11.6667V5.53332C3.66659 5.19999 3.79992 4.86666 3.99992 4.66666L5.79992 2.66666L6.19992 0.99999C6.26659 0.59999 6.73325 0.39999 7.06659 0.533324C7.66659 0.666657 8.33325 1.19999 8.33325 2.26666C8.33325 3.39999 7.66659 4.99999 7.66659 4.99999H12.3333C13.0666 4.99999 13.6666 5.59999 13.6666 6.33332V6.93332C13.6666 7.19999 13.5999 7.46666 13.4666 7.73332L11.4666 12.2667C11.2666 12.7333 10.8666 13 10.3333 13Z" fill="#B1CDBA"/>
</svg>
