<svg width="14" height="13" viewBox="0 0 14 13" fill="none" xmlns="http://www.w3.org/2000/svg">
<path d="M12.3333 0H1.66665C0.933318 0 0.339984 0.6 0.339984 1.33333L0.333984 11.7227C0.333984 12.3167 1.05198 12.6147 1.47198 12.1947L2.99998 10.6667H12.3333C13.0667 10.6667 13.6667 10.0667 13.6667 9.33333V1.33333C13.6667 0.6 13.0667 0 12.3333 0ZM4.99998 5.33333C4.99998 5.70133 4.70132 6 4.33332 6C3.96532 6 3.66665 5.70133 3.66665 5.33333C3.66665 4.96533 3.96532 4.66667 4.33332 4.66667C4.70132 4.66667 4.99998 4.96533 4.99998 5.33333ZM7.66665 5.33333C7.66665 5.70133 7.36799 6 6.99999 6C6.63199 6 6.33332 5.70133 6.33332 5.33333C6.33332 4.96533 6.63199 4.66667 6.99999 4.66667C7.36799 4.66667 7.66665 4.96533 7.66665 5.33333ZM10.3333 5.33333C10.3333 5.70133 10.0347 6 9.66665 6C9.29865 6 8.99999 5.70133 8.99999 5.33333C8.99999 4.96533 9.29865 4.66667 9.66665 4.66667C10.0347 4.66667 10.3333 4.96533 10.3333 5.33333Z" fill="#B1CDBA"/>
</svg>
