<svg width="14" height="18" viewBox="0 0 14 18" fill="none" xmlns="http://www.w3.org/2000/svg">
<path d="M1 3C1 2.46957 1.21071 1.96086 1.58579 1.58579C1.96086 1.21071 2.46957 1 3 1H11C11.5304 1 12.0391 1.21071 12.4142 1.58579C12.7893 1.96086 13 2.46957 13 3V16.5C13 16.5904 12.9754 16.6792 12.9289 16.7568C12.8824 16.8343 12.8157 16.8979 12.736 16.9405C12.6563 16.9832 12.5664 17.0035 12.4761 16.9992C12.3858 16.9948 12.2983 16.9661 12.223 16.916L7 14.101L1.777 16.916C1.70171 16.9661 1.61423 16.9948 1.52389 16.9992C1.43355 17.0035 1.34373 16.9832 1.264 16.9405C1.18427 16.8979 1.1176 16.8343 1.07111 16.7568C1.02462 16.6792 1.00005 16.5904 1 16.5V3ZM3 2C2.73478 2 2.48043 2.10536 2.29289 2.29289C2.10536 2.48043 2 2.73478 2 3V15.566L6.723 13.084C6.80506 13.0294 6.90143 13.0003 7 13.0003C7.09857 13.0003 7.19494 13.0294 7.277 13.084L12 15.566V3C12 2.73478 11.8946 2.48043 11.7071 2.29289C11.5196 2.10536 11.2652 2 11 2H3Z" fill="#20735F" stroke="#20735F"/>
<path d="M7.53033 4.96967C7.38968 4.82902 7.19891 4.75 7 4.75C6.80109 4.75 6.61032 4.82902 6.46967 4.96967C6.32902 5.11032 6.25 5.30109 6.25 5.5V6.75H5C4.80109 6.75 4.61032 6.82902 4.46967 6.96967C4.32902 7.11032 4.25 7.30109 4.25 7.5C4.25 7.69891 4.32902 7.88968 4.46967 8.03033C4.61032 8.17098 4.80109 8.25 5 8.25H6.25V9.5C6.25 9.69891 6.32902 9.88968 6.46967 10.0303C6.61032 10.171 6.80109 10.25 7 10.25C7.19891 10.25 7.38968 10.171 7.53033 10.0303C7.67098 9.88968 7.75 9.69891 7.75 9.5V8.25H9C9.19891 8.25 9.38968 8.17098 9.53033 8.03033C9.67098 7.88968 9.75 7.69891 9.75 7.5C9.75 7.30109 9.67098 7.11032 9.53033 6.96967C9.38968 6.82902 9.19891 6.75 9 6.75H7.75V5.5C7.75 5.30109 7.67098 5.11032 7.53033 4.96967Z" fill="#20735F" stroke="#20735F" stroke-width="0.5"/>
</svg>
