<svg width="18" height="17" viewBox="0 0 18 17" fill="none" xmlns="http://www.w3.org/2000/svg">
<path d="M0.8 15.793V15.793V3C0.8 2.41652 1.03179 1.85695 1.44437 1.44437C1.85695 1.03179 2.41652 0.8 3 0.8H15C15.5835 0.8 16.1431 1.03179 16.5556 1.44437C16.9682 1.85695 17.2 2.41652 17.2 3V11C17.2 11.5835 16.9682 12.1431 16.5556 12.5556C16.1431 12.9682 15.5835 13.2 15 13.2H5.41404C5.41403 13.2 5.41401 13.2 5.414 13.2C5.20186 13.2001 4.99843 13.2844 4.84844 13.4344L4.84842 13.4344L1.9956 16.2872L0.8 15.793ZM0.8 15.793C0.800029 15.9316 0.84115 16.0669 0.918156 16.1821M0.8 15.793L0.918156 16.1821M0.918156 16.1821C0.995163 16.2972 1.10459 16.3869 1.2326 16.4398M0.918156 16.1821L1.2326 16.4398M1.2326 16.4398C1.3606 16.4927 1.50143 16.5065 1.63725 16.4793M1.2326 16.4398L1.63725 16.4793M1.63725 16.4793C1.77299 16.4522 1.89763 16.3854 1.99542 16.2874L1.63725 16.4793ZM5.414 11.8H5.41396C4.83053 11.8001 4.27104 12.032 3.85856 12.4446L2.2 14.1032V3C2.2 2.78783 2.28429 2.58434 2.43431 2.43431C2.58434 2.28429 2.78783 2.2 3 2.2H15C15.2122 2.2 15.4157 2.28429 15.5657 2.43431C15.7157 2.58434 15.8 2.78783 15.8 3V11C15.8 11.2122 15.7157 11.4157 15.5657 11.5657C15.4157 11.7157 15.2122 11.8 15 11.8H5.414Z" fill="white" stroke="white" stroke-width="0.4"/>
</svg>
