<svg width="18" height="18" viewBox="0 0 18 18" fill="none" xmlns="http://www.w3.org/2000/svg">
<path fill-rule="evenodd" clip-rule="evenodd" d="M12.273 6.54519C12.273 7.41317 11.9282 8.2456 11.3144 8.85936C10.7007 9.47311 9.86825 9.81792 9.00027 9.81792C8.13229 9.81792 7.29985 9.47311 6.6861 8.85936C6.07234 8.2456 5.72754 7.41317 5.72754 6.54519C5.72754 5.67721 6.07234 4.84478 6.6861 4.23102C7.29985 3.61727 8.13229 3.27246 9.00027 3.27246C9.86825 3.27246 10.7007 3.61727 11.3144 4.23102C11.9282 4.84478 12.273 5.67721 12.273 6.54519V6.54519ZM10.6366 6.54519C10.6366 6.97918 10.4642 7.39539 10.1574 7.70227C9.85047 8.00915 9.43426 8.18155 9.00027 8.18155C8.56628 8.18155 8.15006 8.00915 7.84318 7.70227C7.53631 7.39539 7.3639 6.97918 7.3639 6.54519C7.3639 6.1112 7.53631 5.69498 7.84318 5.3881C8.15006 5.08123 8.56628 4.90882 9.00027 4.90882C9.43426 4.90882 9.85047 5.08123 10.1574 5.3881C10.4642 5.69498 10.6366 6.1112 10.6366 6.54519V6.54519Z" fill="white"/>
<path fill-rule="evenodd" clip-rule="evenodd" d="M9 0C4.02955 0 0 4.02955 0 9C0 13.9705 4.02955 18 9 18C13.9705 18 18 13.9705 18 9C18 4.02955 13.9705 0 9 0ZM1.63636 9C1.63636 10.71 2.21973 12.2842 3.19745 13.5344C3.8841 12.6326 4.76992 11.9019 5.78572 11.3992C6.80152 10.8964 7.91979 10.6354 9.05318 10.6364C10.1719 10.6353 11.2761 10.8896 12.2817 11.3799C13.2872 11.8702 14.1676 12.5836 14.8557 13.4656C15.5646 12.5359 16.042 11.4506 16.2482 10.2998C16.4544 9.14888 16.3836 7.96544 16.0417 6.84735C15.6997 5.72926 15.0965 4.70868 14.2818 3.87003C13.4671 3.03139 12.4644 2.39879 11.3567 2.0246C10.249 1.6504 9.06807 1.54536 7.9117 1.71816C6.75534 1.89096 5.65674 2.33664 4.70681 3.01832C3.75688 3.69999 2.98294 4.59808 2.44901 5.63825C1.91508 6.67843 1.63651 7.83079 1.63636 9V9ZM9 16.3636C7.3096 16.3662 5.67022 15.7846 4.35927 14.7175C4.88694 13.9621 5.58928 13.3453 6.40652 12.9197C7.22377 12.494 8.13174 12.2721 9.05318 12.2727C9.96313 12.272 10.8601 12.4884 11.6697 12.9039C12.4792 13.3194 13.1779 13.9221 13.7078 14.6618C12.3867 15.7637 10.7203 16.366 9 16.3636V16.3636Z" fill="white"/>
</svg>
