<svg width="20" height="17" viewBox="0 0 20 17" fill="none" xmlns="http://www.w3.org/2000/svg">
<path d="M19.4118 14.2283H5.93943C5.83793 14.2283 5.75488 14.3114 5.75488 14.413V15.7065C5.75488 15.8082 5.83793 15.8913 5.93943 15.8913H19.4118C19.5133 15.8913 19.5964 15.8082 19.5964 15.7065V14.413C19.5964 14.3114 19.5133 14.2283 19.4118 14.2283ZM19.4118 1.1087H5.93943C5.83793 1.1087 5.75488 1.19185 5.75488 1.29348V2.58696C5.75488 2.68859 5.83793 2.77174 5.93943 2.77174H19.4118C19.5133 2.77174 19.5964 2.68859 19.5964 2.58696V1.29348C19.5964 1.19185 19.5133 1.1087 19.4118 1.1087ZM19.4118 7.66848H5.93943C5.83793 7.66848 5.75488 7.75163 5.75488 7.85326V9.14674C5.75488 9.24837 5.83793 9.33152 5.93943 9.33152H19.4118C19.5133 9.33152 19.5964 9.24837 19.5964 9.14674V7.85326C19.5964 7.75163 19.5133 7.66848 19.4118 7.66848ZM3.17113 13.1196H0.495109C0.444357 13.1196 0.402832 13.1611 0.402832 13.212V13.9973C0.402832 14.0481 0.444357 14.0897 0.495109 14.0897H2.16532V14.5632H1.34175C1.29099 14.5632 1.24947 14.6048 1.24947 14.6556V15.4409C1.24947 15.4917 1.29099 15.5333 1.34175 15.5333H2.16532V16.0299H0.495109C0.444357 16.0299 0.402832 16.0715 0.402832 16.1223V16.9076C0.402832 16.9584 0.444357 17 0.495109 17H3.17113C3.22188 17 3.26341 16.9584 3.26341 16.9076V13.212C3.26341 13.1611 3.22188 13.1196 3.17113 13.1196ZM0.495109 1.0163H1.37174V3.78804C1.37174 3.83886 1.41326 3.88043 1.46401 3.88043H2.38678C2.43753 3.88043 2.47906 3.83886 2.47906 3.78804V0.184783C2.47906 0.0831522 2.39601 0 2.2945 0H0.495109C0.444357 0 0.402832 0.0415761 0.402832 0.0923913V0.923913C0.402832 0.974728 0.444357 1.0163 0.495109 1.0163ZM3.17113 6.55978H0.495109C0.444357 6.55978 0.402832 6.60136 0.402832 6.65217V7.4837C0.402832 7.53451 0.444357 7.57609 0.495109 7.57609H2.07304L0.451277 9.37079C0.420689 9.40519 0.403492 9.44946 0.402832 9.49552V10.3478C0.402832 10.3986 0.444357 10.4402 0.495109 10.4402H3.17113C3.22188 10.4402 3.26341 10.3986 3.26341 10.3478V9.5163C3.26341 9.46549 3.22188 9.42391 3.17113 9.42391H1.5932L3.21496 7.62921C3.24555 7.59481 3.26275 7.55054 3.26341 7.50448V6.65217C3.26341 6.60136 3.22188 6.55978 3.17113 6.55978V6.55978Z" fill="white"/>
</svg>
