<svg width="193" height="21" viewBox="0 0 193 21" fill="none" xmlns="http://www.w3.org/2000/svg">
<path d="M0.39 6.364C0.39 4.752 0.901333 3.51267 1.924 2.646C2.964 1.77933 4.37667 1.346 6.162 1.346C7.514 1.346 8.476 1.51933 9.048 1.866C9.62 2.19533 9.906 2.76733 9.906 3.582C9.906 4.50067 9.50733 4.96 8.71 4.96L8.19 4.908C7.826 4.856 7.41 4.83 6.942 4.83C6.14467 4.83 5.54667 4.96867 5.148 5.246C4.76667 5.52333 4.576 5.948 4.576 6.52V7.352H7.748C8.56267 7.352 9.03067 7.62067 9.152 8.158C9.23867 8.50467 9.282 8.79067 9.282 9.016C9.282 10.16 8.788 10.732 7.8 10.732H4.81V17.778C4.81 18.3673 4.66267 18.766 4.368 18.974C4.07333 19.1647 3.73533 19.2513 3.354 19.234L2.834 19.208C1.95 19.208 1.31733 19.052 0.936 18.74C0.572 18.428 0.39 17.8907 0.39 17.128V6.364ZM9.83531 2.854C9.83531 2.178 10.0606 1.62333 10.5113 1.19C10.962 0.739332 11.5426 0.513999 12.2533 0.513999C12.964 0.513999 13.5446 0.739332 13.9953 1.19C14.446 1.62333 14.6713 2.178 14.6713 2.854C14.6713 3.53 14.446 4.09333 13.9953 4.544C13.5446 4.97733 12.964 5.194 12.2533 5.194C11.5426 5.194 10.962 4.97733 10.5113 4.544C10.0606 4.09333 9.83531 3.53 9.83531 2.854ZM14.4633 17.778C14.4633 18.3673 14.3246 18.7573 14.0473 18.948C13.7873 19.1387 13.458 19.2253 13.0593 19.208H12.4873C11.6033 19.208 10.9706 19.052 10.5893 18.74C10.2253 18.428 10.0433 17.8907 10.0433 17.128V7.742C10.0433 7.15267 10.1733 6.76267 10.4333 6.572C10.6933 6.38133 11.0313 6.286 11.4473 6.286L12.0193 6.312C12.9033 6.312 13.5273 6.468 13.8913 6.78C14.2726 7.092 14.4633 7.62933 14.4633 8.392V17.778ZM19.8666 17.778C19.8666 18.3673 19.728 18.7573 19.4506 18.948C19.1906 19.1387 18.8613 19.2253 18.4626 19.208H17.8906C17.0066 19.208 16.374 19.052 15.9926 18.74C15.6286 18.428 15.4466 17.8907 15.4466 17.128V3.244C15.4466 2.65467 15.5766 2.26467 15.8366 2.074C16.0966 1.88333 16.4346 1.788 16.8506 1.788L17.4226 1.814C18.3066 1.814 18.9306 1.97 19.2946 2.282C19.676 2.594 19.8666 3.13133 19.8666 3.894V17.778ZM26.7097 5.974C28.2871 5.974 29.5784 6.37267 30.5837 7.17C31.2077 6.754 31.8404 6.45067 32.4817 6.26C33.1404 6.06933 33.8771 5.974 34.6917 5.974C35.3851 5.974 36.0437 6.06933 36.6677 6.26C37.3091 6.43333 37.8637 6.69333 38.3317 7.04C39.4064 7.85467 39.9437 9.10267 39.9437 10.784V17.778C39.9437 18.3673 39.7964 18.766 39.5017 18.974C39.2071 19.1647 38.8691 19.2513 38.4877 19.234L37.9677 19.208C37.0837 19.208 36.4511 19.052 36.0697 18.74C35.7057 18.428 35.5237 17.8907 35.5237 17.128V10.914C35.5237 9.926 34.9777 9.432 33.8857 9.432C33.6951 9.432 33.4611 9.49267 33.1837 9.614C32.9064 9.718 32.6724 9.83067 32.4817 9.952C32.4991 9.96933 32.5077 10.03 32.5077 10.134V17.778C32.5077 18.3673 32.3604 18.766 32.0657 18.974C31.7711 19.1647 31.4331 19.2513 31.0517 19.234L30.5317 19.208C29.6477 19.208 29.0151 19.052 28.6337 18.74C28.2697 18.428 28.0877 17.8907 28.0877 17.128V10.914C28.0877 10.446 27.9404 10.082 27.6457 9.822C27.3684 9.562 26.9697 9.432 26.4497 9.432C25.9644 9.432 25.5051 9.57067 25.0717 9.848V17.778C25.0717 18.3673 24.9244 18.766 24.6297 18.974C24.3351 19.1647 23.9971 19.2513 23.6157 19.234L23.0957 19.208C22.2117 19.208 21.5791 19.052 21.1977 18.74C20.8337 18.428 20.6517 17.8907 20.6517 17.128V9.276C20.6517 8.86 20.7384 8.51333 20.9117 8.236C21.0851 7.94133 21.3711 7.65533 21.7697 7.378C22.3591 6.962 23.0957 6.624 23.9797 6.364C24.8811 6.104 25.7911 5.974 26.7097 5.974ZM48.7437 10.992C48.7437 10.472 48.5964 10.082 48.3017 9.822C48.007 9.562 47.591 9.432 47.0537 9.432C46.291 9.432 45.6584 9.60533 45.1557 9.952V17.778C45.1557 18.3673 45.0084 18.766 44.7137 18.974C44.419 19.1647 44.081 19.2513 43.6997 19.234L43.1797 19.208C42.2957 19.208 41.663 19.052 41.2817 18.74C40.9177 18.428 40.7357 17.8907 40.7357 17.128V9.328C40.7357 8.89467 40.8224 8.53067 40.9957 8.236C41.169 7.94133 41.455 7.65533 41.8537 7.378C42.495 6.94467 43.2664 6.60667 44.1677 6.364C45.069 6.104 46.031 5.974 47.0537 5.974C49.0124 5.974 50.5204 6.40733 51.5777 7.274C52.635 8.12333 53.1637 9.31067 53.1637 10.836V17.778C53.1637 18.3673 53.0164 18.766 52.7217 18.974C52.427 19.1647 52.089 19.2513 51.7077 19.234L51.1877 19.208C50.3037 19.208 49.671 19.052 49.2897 18.74C48.9257 18.428 48.7437 17.8907 48.7437 17.128V10.992ZM61.543 8.106C61.6817 7.51667 61.933 7.12667 62.297 6.936C62.6783 6.728 63.207 6.624 63.883 6.624C64.6283 6.624 65.235 6.73667 65.703 6.962C66.1883 7.17 66.483 7.482 66.587 7.898C66.8123 8.76467 66.9944 9.42333 67.133 9.874L67.601 11.642C68.017 13.1673 68.3117 14.3113 68.485 15.074H68.615C68.7883 13.982 69.0397 12.0233 69.369 9.198L69.681 6.442L69.889 3.582C69.941 2.958 70.1403 2.542 70.487 2.334C70.851 2.126 71.371 2.022 72.047 2.022C72.7923 2.022 73.373 2.178 73.789 2.49C74.205 2.78467 74.413 3.23533 74.413 3.842C74.413 4.778 74.2657 6.37267 73.971 8.626C73.6764 10.8793 73.347 12.8033 72.983 14.398C72.619 15.8887 72.3417 16.9547 72.151 17.596C71.943 18.2027 71.5964 18.6013 71.111 18.792C70.4523 19.0693 69.6637 19.208 68.745 19.208C67.8957 19.208 67.1937 19.104 66.639 18.896C66.1017 18.6707 65.7723 18.3587 65.651 17.96C65.3217 16.92 64.8017 15.048 64.091 12.344C63.5883 14.5627 63.181 16.2873 62.869 17.518C62.7823 17.882 62.661 18.168 62.505 18.376C62.349 18.5667 62.141 18.7227 61.881 18.844C61.2397 19.0867 60.529 19.208 59.749 19.208C58.8997 19.208 58.1717 19.104 57.565 18.896C56.9757 18.6707 56.5857 18.3587 56.395 17.96C56.135 17.4227 55.7797 16.2527 55.329 14.45C54.8783 12.63 54.5057 10.862 54.211 9.146C53.9683 7.70733 53.7777 6.29467 53.639 4.908L53.535 3.946C53.5177 3.894 53.509 3.79867 53.509 3.66C53.509 3.10533 53.7257 2.698 54.159 2.438C54.6097 2.16067 55.173 2.022 55.849 2.022C57.2877 2.022 58.0937 2.646 58.267 3.894L59.411 12.318L59.645 14.086L59.801 15.074H59.931L60.165 14.06L60.815 11.356L61.543 8.106ZM87.6188 17.778C87.6188 18.3673 87.4714 18.766 87.1768 18.974C86.8821 19.1647 86.5441 19.2513 86.1628 19.234L85.6428 19.208C84.7588 19.208 84.1261 19.052 83.7448 18.74C83.3808 18.428 83.1988 17.8907 83.1988 17.128V11.356C83.1988 10.0733 82.5834 9.432 81.3528 9.432C80.6941 9.432 80.1134 9.57933 79.6108 9.874V17.778C79.6108 18.3673 79.4634 18.766 79.1688 18.974C78.8741 19.1647 78.5361 19.2513 78.1548 19.234L77.6348 19.208C76.7508 19.208 76.1181 19.052 75.7368 18.74C75.3728 18.428 75.1908 17.8907 75.1908 17.128V3.244C75.1908 2.65467 75.3208 2.26467 75.5808 2.074C75.8408 1.88333 76.1788 1.788 76.5948 1.788L77.1668 1.814C78.0508 1.814 78.6748 1.97 79.0388 2.282C79.4201 2.594 79.6108 3.13133 79.6108 3.894V6.442C79.9401 6.32067 80.3388 6.21667 80.8068 6.13C81.2748 6.026 81.7254 5.974 82.1588 5.974C83.9268 5.974 85.2788 6.416 86.2148 7.3C87.1508 8.16667 87.6188 9.432 87.6188 11.096V17.778ZM102.018 12.682C102.018 14.7967 101.403 16.452 100.172 17.648C98.9586 18.8267 97.3032 19.416 95.2059 19.416C93.1432 19.416 91.5052 18.8093 90.2919 17.596C89.0266 16.4173 88.3939 14.7793 88.3939 12.682C88.3939 11.6767 88.5586 10.758 88.8879 9.926C89.2172 9.07667 89.6852 8.35733 90.2919 7.768C91.5399 6.572 93.1779 5.974 95.2059 5.974C96.1939 5.974 97.1126 6.13 97.9619 6.442C98.8112 6.754 99.5392 7.20467 100.146 7.794C100.753 8.38333 101.212 9.10267 101.524 9.952C101.853 10.784 102.018 11.694 102.018 12.682ZM92.9179 12.682C92.9179 13.722 93.1172 14.528 93.5159 15.1C93.9319 15.672 94.5039 15.958 95.2319 15.958C95.9599 15.958 96.5146 15.672 96.8959 15.1C97.2946 14.528 97.4939 13.722 97.4939 12.682C97.4939 11.642 97.2946 10.8447 96.8959 10.29C96.4972 9.718 95.9339 9.432 95.2059 9.432C94.4779 9.432 93.9146 9.718 93.5159 10.29C93.1172 10.8447 92.9179 11.642 92.9179 12.682Z" fill="white"/>
<path d="M124.658 15.2534C124.658 14.7847 124.492 14.4233 124.16 14.1694C123.833 13.9155 123.239 13.6592 122.38 13.4004C121.521 13.1416 120.837 12.8535 120.329 12.5361C119.357 11.9258 118.872 11.1299 118.872 10.1484C118.872 9.28906 119.221 8.58105 119.919 8.02441C120.622 7.46777 121.533 7.18945 122.651 7.18945C123.393 7.18945 124.055 7.32617 124.636 7.59961C125.217 7.87305 125.673 8.26367 126.005 8.77148C126.337 9.27441 126.503 9.8335 126.503 10.4487H124.658C124.658 9.89209 124.482 9.45752 124.13 9.14502C123.784 8.82764 123.286 8.66895 122.636 8.66895C122.031 8.66895 121.56 8.79834 121.223 9.05713C120.891 9.31592 120.725 9.67725 120.725 10.1411C120.725 10.5317 120.905 10.8589 121.267 11.1226C121.628 11.3813 122.224 11.6353 123.054 11.8843C123.884 12.1284 124.55 12.4092 125.053 12.7266C125.556 13.0391 125.925 13.4004 126.159 13.8105C126.394 14.2158 126.511 14.6919 126.511 15.2388C126.511 16.1274 126.169 16.8354 125.485 17.3628C124.807 17.8853 123.884 18.1465 122.717 18.1465C121.945 18.1465 121.235 18.0049 120.585 17.7217C119.941 17.4336 119.438 17.0381 119.077 16.5352C118.72 16.0322 118.542 15.4463 118.542 14.7773H120.395C120.395 15.3828 120.595 15.8516 120.996 16.1836C121.396 16.5156 121.97 16.6816 122.717 16.6816C123.361 16.6816 123.845 16.5522 124.167 16.2935C124.494 16.0298 124.658 15.6831 124.658 15.2534ZM138.87 13.2393H134.49V16.5205H139.609V18H132.637V7.33594H139.558V8.83008H134.49V11.7744H138.87V13.2393ZM147.471 16.5205H152.312V18H145.618V7.33594H147.471V16.5205ZM160.086 16.5205H164.928V18H158.233V7.33594H160.086V16.5205ZM177.082 13.2393H172.702V16.5205H177.821V18H170.849V7.33594H177.77V8.83008H172.702V11.7744H177.082V13.2393ZM187.749 13.8911H185.683V18H183.83V7.33594H187.58C188.811 7.33594 189.76 7.61182 190.429 8.16357C191.098 8.71533 191.433 9.51367 191.433 10.5586C191.433 11.2715 191.259 11.8696 190.913 12.353C190.571 12.8315 190.092 13.2002 189.477 13.459L191.872 17.9048V18H189.887L187.749 13.8911ZM185.683 12.4043H187.587C188.212 12.4043 188.701 12.248 189.052 11.9355C189.404 11.6182 189.58 11.186 189.58 10.6392C189.58 10.0679 189.416 9.62598 189.089 9.31348C188.767 9.00098 188.283 8.83984 187.639 8.83008H185.683V12.4043Z" fill="white" fill-opacity="0.4"/>
</svg>
