<svg width="13" height="12" viewBox="0 0 13 12" fill="none" xmlns="http://www.w3.org/2000/svg">
<path d="M11.7 3.78947H8.0522L8.78215 1.66295C8.91345 1.27895 8.84715 0.853263 8.6034 0.524842C8.35965 0.196421 7.96445 0 7.5478 0H6.5C6.30695 0 6.1243 0.0833684 6.00015 0.227368L2.94515 3.78947H1.3C0.58305 3.78947 0 4.356 0 5.05263V10.7368C0 11.4335 0.58305 12 1.3 12H9.94955C10.214 11.9991 10.472 11.9203 10.6894 11.7739C10.9068 11.6276 11.0733 11.4205 11.167 11.1802L12.959 6.53747C12.9863 6.46656 13.0001 6.39147 13 6.31579V5.05263C13 4.356 12.4169 3.78947 11.7 3.78947ZM1.3 5.05263H2.6V10.7368H1.3V5.05263ZM11.7 6.20147L9.94955 10.7368H3.9V4.64968L6.8042 1.26316H7.5491L6.5338 4.22084C6.50084 4.31578 6.49165 4.41698 6.50698 4.51606C6.52232 4.61514 6.56174 4.70924 6.62198 4.79055C6.68222 4.87187 6.76154 4.93806 6.85337 4.98364C6.9452 5.02922 7.04688 5.05287 7.15 5.05263H11.7V6.20147Z" fill="#A9ACBE"/>
</svg>
