<svg width="30" height="30" viewBox="0 0 30 30" fill="none" xmlns="http://www.w3.org/2000/svg">
<circle cx="15" cy="15" r="15" fill="#00BCF2"/>
<path d="M20.9936 12.5446C20.9354 13.7825 20.0516 15.4774 18.3425 17.6293C16.575 19.8764 15.0795 21 13.8559 21C13.0984 21 12.4575 20.3144 11.9331 18.9433L10.8842 15.1727C10.4958 13.8015 10.0782 13.116 9.63149 13.116C9.53438 13.116 9.19449 13.3159 8.61181 13.7158L8 12.9446C8.64094 12.3923 9.27217 11.84 9.89369 11.2878C10.7483 10.5641 11.3892 10.1832 11.8165 10.1452C12.8265 10.0499 13.448 10.726 13.6811 12.1733C13.9336 13.7349 14.1084 14.7061 14.2055 15.087C14.4968 16.3819 14.8173 17.0294 15.1669 17.0294C15.4388 17.0294 15.8467 16.6105 16.3905 15.7725C16.9343 14.9346 17.2257 14.2967 17.2645 13.8587C17.3422 13.135 17.0509 12.7732 16.3905 12.7732C16.0797 12.7732 15.7593 12.8398 15.4291 12.9731C16.07 10.9355 17.2936 9.9452 19.0999 10.0023C20.4401 10.0404 21.0713 10.8879 20.9936 12.5447L20.9936 12.5446Z" fill="white"/>
</svg>
