<svg width="30" height="30" viewBox="0 0 30 30" fill="none" xmlns="http://www.w3.org/2000/svg">
<circle cx="15" cy="15" r="15" fill="#FE0000"/>
<path d="M25 14.9397C25 14.8923 25 14.8384 24.9978 14.7759C24.9955 14.6014 24.9911 14.4054 24.9866 14.1964C24.9688 13.5953 24.9375 12.9963 24.8884 12.4318C24.8214 11.654 24.7232 11.0055 24.5893 10.5186C24.448 10.0105 24.1709 9.54704 23.7859 9.17463C23.4008 8.80222 22.9213 8.53388 22.3951 8.39643C21.7634 8.23269 20.5268 8.13142 18.7857 8.06894C17.9576 8.03878 17.0714 8.01939 16.1853 8.00862C15.875 8.00431 15.5871 8.00215 15.3281 8H14.6719C14.4129 8.00215 14.125 8.00431 13.8147 8.00862C12.9286 8.01939 12.0424 8.03878 11.2143 8.06894C9.47321 8.13358 8.23438 8.23484 7.60491 8.39643C7.07857 8.53354 6.59882 8.80177 6.21371 9.17423C5.82861 9.5467 5.5517 10.0103 5.41071 10.5186C5.27455 11.0055 5.17857 11.654 5.11161 12.4318C5.0625 12.9963 5.03125 13.5953 5.01339 14.1964C5.0067 14.4054 5.00446 14.6014 5.00223 14.7759C5.00223 14.8384 5 14.8923 5 14.9397V15.0603C5 15.1077 5 15.1616 5.00223 15.2241C5.00446 15.3986 5.00893 15.5946 5.01339 15.8036C5.03125 16.4047 5.0625 17.0037 5.11161 17.5682C5.17857 18.346 5.27679 18.9945 5.41071 19.4814C5.69643 20.5134 6.53571 21.3278 7.60491 21.6036C8.23438 21.7673 9.47321 21.8686 11.2143 21.9311C12.0424 21.9612 12.9286 21.9806 13.8147 21.9914C14.125 21.9957 14.4129 21.9978 14.6719 22H15.3281C15.5871 21.9978 15.875 21.9957 16.1853 21.9914C17.0714 21.9806 17.9576 21.9612 18.7857 21.9311C20.5268 21.8664 21.7656 21.7652 22.3951 21.6036C23.4643 21.3278 24.3036 20.5155 24.5893 19.4814C24.7254 18.9945 24.8214 18.346 24.8884 17.5682C24.9375 17.0037 24.9688 16.4047 24.9866 15.8036C24.9933 15.5946 24.9955 15.3986 24.9978 15.2241C24.9978 15.1616 25 15.1077 25 15.0603V14.9397ZM23.3929 15.0517C23.3929 15.097 23.3929 15.1465 23.3906 15.2047C23.3884 15.3727 23.3839 15.558 23.3795 15.7584C23.3638 16.3315 23.3326 16.9046 23.2857 17.4367C23.2254 18.1305 23.1406 18.6993 23.0357 19.0806C22.8973 19.5783 22.4911 19.9726 21.9777 20.104C21.5089 20.2247 20.3281 20.3216 18.7232 20.3798C17.9107 20.41 17.0357 20.4294 16.1629 20.4401C15.8571 20.4444 15.5737 20.4466 15.3192 20.4466H14.6808L13.8371 20.4401C12.9643 20.4294 12.0915 20.41 11.2768 20.3798C9.67188 20.3195 8.48884 20.2247 8.02232 20.104C7.50893 19.9705 7.10268 19.5783 6.96429 19.0806C6.85938 18.6993 6.77455 18.1305 6.71429 17.4367C6.66741 16.9046 6.63839 16.3315 6.62054 15.7584C6.61384 15.558 6.61161 15.3706 6.60938 15.2047C6.60938 15.1465 6.60714 15.0948 6.60714 15.0517V14.9483C6.60714 14.903 6.60714 14.8535 6.60938 14.7953C6.61161 14.6273 6.61607 14.442 6.62054 14.2416C6.63616 13.6685 6.66741 13.0954 6.71429 12.5632C6.77455 11.8695 6.85938 11.3007 6.96429 10.9194C7.10268 10.4217 7.50893 10.0274 8.02232 9.89597C8.49107 9.77532 9.67188 9.67836 11.2768 9.62019C12.0893 9.59003 12.9643 9.57064 13.8371 9.55986C14.1429 9.55556 14.4263 9.5534 14.6808 9.5534H15.3192L16.1629 9.55986C17.0357 9.57064 17.9085 9.59003 18.7232 9.62019C20.3281 9.68052 21.5112 9.77532 21.9777 9.89597C22.4911 10.0295 22.8973 10.4217 23.0357 10.9194C23.1406 11.3007 23.2254 11.8695 23.2857 12.5632C23.3326 13.0954 23.3616 13.6685 23.3795 14.2416C23.3862 14.442 23.3884 14.6294 23.3906 14.7953C23.3906 14.8535 23.3929 14.9052 23.3929 14.9483V15.0517ZM13.0134 17.887L18.192 14.9785L13.0134 12.113V17.887Z" fill="white"/>
</svg>
